<svg width="800" height="800" viewBox="0 0 800 800" fill="none" xmlns="http://www.w3.org/2000/svg">
<g clip-path="url(#clip0_63_2)">
<circle cx="400" cy="400" r="392" fill="url(#paint0_linear_63_2)" stroke="#02FFFF" stroke-width="16"/>
<g filter="url(#filter0_d_63_2)">
<path d="M197.52 581C196.4 572.32 193.74 562.66 189.54 552.02L99.24 324.38C93.08 309.26 79.5 296.8 58.5 287H242.04C235.88 289.8 231.82 294.28 229.86 300.44C228.18 306.6 228.46 312.9 230.7 319.34L282.78 472.22L349.14 287H458.34L525.12 471.8L576.78 321.02C579.02 314.86 579.3 308.28 577.62 301.28C575.94 294 571.88 289.24 565.44 287H739.74C730.22 291.48 722.8 295.82 717.48 300.02C712.44 304.22 708.24 309.12 704.88 314.72C701.52 320.32 697.88 327.6 693.96 336.56L612.06 542.78C611.22 544.46 609.82 547.68 607.86 552.44C606.18 556.92 604.5 561.82 602.82 567.14C601.42 572.18 600.72 576.8 600.72 581H450.78C450.78 568.12 448.54 554.82 444.06 541.1L399.12 408.38L353.34 544.46C351.1 551.18 349.56 557.34 348.72 562.94C348.16 568.26 347.88 574.28 347.88 581H197.52Z" fill="#02FFFF"/>
</g>
</g>
<defs>
<filter id="filter0_d_63_2" x="58.5" y="287" width="691.24" height="304" filterUnits="userSpaceOnUse" color-interpolation-filters="sRGB">
<feFlood flood-opacity="0" result="BackgroundImageFix"/>
<feColorMatrix in="SourceAlpha" type="matrix" values="0 0 0 0 0 0 0 0 0 0 0 0 0 0 0 0 0 0 127 0" result="hardAlpha"/>
<feOffset dx="8" dy="8"/>
<feGaussianBlur stdDeviation="1"/>
<feComposite in2="hardAlpha" operator="out"/>
<feColorMatrix type="matrix" values="0 0 0 0 0.556863 0 0 0 0 0.0627451 0 0 0 0 0.913725 0 0 0 1 0"/>
<feBlend mode="normal" in2="BackgroundImageFix" result="effect1_dropShadow_63_2"/>
<feBlend mode="normal" in="SourceGraphic" in2="effect1_dropShadow_63_2" result="shape"/>
</filter>
<linearGradient id="paint0_linear_63_2" x1="400" y1="0" x2="400" y2="800" gradientUnits="userSpaceOnUse">
<stop stop-color="#1B0B2B"/>
<stop offset="0.0001" stop-color="#200D33"/>
<stop offset="1" stop-color="#5B2591"/>
</linearGradient>
<clipPath id="clip0_63_2">
<rect width="800" height="800" fill="white"/>
</clipPath>
</defs>
</svg>
